Coordinates
version=1
nRows=17
nColumns=38
inDegrees=no

Units are S.I. units (second, meters, Newtons, ...)
If the header above contains a line with 'inDegrees', this indicates whether rotational values are in degrees (yes) or radians (no).

endheader
time	pelvis_tilt	pelvis_list	pelvis_rotation	pelvis_tx	pelvis_ty	pelvis_tz	hip_flexion_r	hip_adduction_r	hip_rotation_r	knee_angle_r	ankle_angle_r	subtalar_angle_r	mtp_angle_r	hip_flexion_l	hip_adduction_l	hip_rotation_l	knee_angle_l	ankle_angle_l	subtalar_angle_l	mtp_angle_l	lumbar_extension	lumbar_bending	lumbar_rotation	arm_flex_r	arm_add_r	arm_rot_r	elbow_flex_r	pro_sup_r	wrist_flex_r	wrist_dev_r	arm_flex_l	arm_add_l	arm_rot_l	elbow_flex_l	pro_sup_l	wrist_flex_l	wrist_dev_l
1.57	-2.99345	1.51759	-1.7384	0.766015	0.789658	0.94212	-0.123437	0.0431785	-0.309233	0.166177	0.188937	0	0	0.34722	-0.173102	-0.347212	0.662808	0.0604608	0	0	-0.186534	0.0299831	0.0341999	0.0387065	-0.379332	0.314833	0.89358	1.27653	0	0	-0.176202	-0.272819	0.322688	0.753564	0.987073	0	0
1.58	-2.96395	1.51919	-1.76876	0.766129	0.797839	0.940981	-0.134393	0.042629	-0.30714	0.160654	0.194644	0	0	0.34471	-0.162911	-0.364354	0.596422	0.0601252	0	0	-0.186192	0.028056	0.0333017	0.0430863	-0.380089	0.311866	0.900129	1.28195	0	0	-0.173695	-0.272157	0.325807	0.751471	0.986619	0	0
1.59	-2.93686	1.52186	-1.79606	0.766023	0.805984	0.939589	-0.143675	0.0422503	-0.306173	0.156282	0.200917	0	0	0.342914	-0.15129	-0.378578	0.528132	0.0595939	0	0	-0.184851	0.0269028	0.0314932	0.0477532	-0.381068	0.310098	0.905764	1.28602	0	0	-0.171321	-0.271209	0.328105	0.749515	0.986912	0	0
1.6	-2.90704	1.5246	-1.82538	0.765735	0.81415	0.938071	-0.152557	0.0416721	-0.305977	0.152644	0.207423	0	0	0.340235	-0.137684	-0.389135	0.457174	0.0585415	0	0	-0.183527	0.0259456	0.028749	0.0524949	-0.381533	0.30792	0.910094	1.29103	0	0	-0.168908	-0.270106	0.329793	0.74751	0.987885	0	0
1.61	-2.87169	1.52725	-1.85963	0.765259	0.822336	0.936452	-0.161132	0.0406043	-0.30655	0.15	0.214667	0	0	0.336054	-0.121848	-0.394921	0.382985	0.0566303	0	0	-0.182436	0.024998	0.0254361	0.0571513	-0.381465	0.304364	0.913176	1.29693	0	0	-0.166102	-0.26895	0.331601	0.744653	0.990328	0	0
1.62	-2.82821	1.52932	-1.90155	0.764586	0.830603	0.9348	-0.169997	0.0388779	-0.308104	0.148101	0.222607	0	0	0.328821	-0.103088	-0.392202	0.303928	0.0524957	0	0	-0.181948	0.0238335	0.021737	0.0614346	-0.380858	0.29918	0.915186	1.30508	0	0	-0.163	-0.267623	0.332971	0.741595	0.995011	0	0
1.63	-2.80201	1.53233	-1.92585	0.763843	0.838959	0.932929	-0.177903	0.0383904	-0.310156	0.147118	0.230947	0	0	0.32144	-0.0849934	-0.381075	0.225585	0.0487924	0	0	-0.180657	0.0239023	0.0179613	0.0651819	-0.379991	0.293424	0.916254	1.31351	0	0	-0.160035	-0.266108	0.333637	0.738374	1.00007	0	0
1.64	-2.77805	1.53427	-1.94846	0.763033	0.847494	0.931037	-0.18686	0.037332	-0.312519	0.14679	0.240025	0	0	0.309236	-0.0657458	-0.359363	0.142558	0.0387184	0	0	-0.180376	0.0236857	0.0147719	0.0683073	-0.378641	0.285964	0.916424	1.32529	0	0	-0.157093	-0.264665	0.333999	0.735173	1.00725	0	0
1.65	-2.78696	1.53601	-1.93867	0.76228	0.856265	0.929046	-0.196907	0.0375687	-0.313598	0.146022	0.248426	0	0	0.294044	-0.0488666	-0.329001	0.059516	0.0229012	0	0	-0.180572	0.0243714	0.012147	0.0710806	-0.377915	0.280154	0.9162	1.33812	0	0	-0.154734	-0.26326	0.333083	0.732378	1.01736	0	0
1.66	-2.84169	1.53916	-1.88361	0.761694	0.865248	0.926818	-0.206183	0.0399885	-0.312795	0.145176	0.25585	0	0	0.282796	-0.0378727	-0.302335	0	0.00946431	0	0	-0.17948	0.0265818	0.0102049	0.0732541	-0.377312	0.276777	0.915292	1.34095	0	0	-0.153145	-0.262234	0.332435	0.730286	1.02156	0	0
1.67	-2.90428	1.5364	-1.81641	0.761276	0.873408	0.924841	-0.218361	0.0459182	-0.305432	0.147195	0.258957	0	0	0.298118	-0.0352566	-0.295616	0	0.0139294	0	0	-0.186027	0.0260219	0.00623075	0.0759195	-0.375303	0.273132	0.913246	1.34223	0	0	-0.148989	-0.2633	0.33252	0.728856	1.0248	0	0
1.68	-2.97897	1.53541	-1.73983	0.760911	0.882208	0.922913	-0.230884	0.048425	-0.304323	0.147984	0.265175	0	0	0.307941	-0.033527	-0.29036	0	0.0185974	0	0	-0.189903	0.0265081	0.00378492	0.0779032	-0.372571	0.268817	0.9092	1.34358	0	0	-0.146093	-0.264161	0.332499	0.726992	1.02797	0	0
1.69	-3.03058	1.53379	-1.68782	0.760567	0.891314	0.921079	-0.243065	0.049413	-0.303353	0.150764	0.271687	0	0	0.314769	-0.031011	-0.285511	0	0.0233941	0	0	-0.194013	0.0260456	0.00244681	0.0795074	-0.369645	0.264676	0.904036	1.34501	0	0	-0.143466	-0.265147	0.332393	0.72502	1.03061	0	0
1.7	-3.06179	1.53161	-1.65777	0.760257	0.900817	0.919363	-0.254969	0.0487749	-0.302385	0.1556	0.278263	0	0	0.318291	-0.0279206	-0.280723	0	0.0277815	0	0	-0.198108	0.0247179	0.00232018	0.0803307	-0.36644	0.260345	0.89795	1.34639	0	0	-0.141207	-0.266178	0.332167	0.722604	1.03249	0	0
1.71	-3.08469	1.52918	-1.6376	0.760029	0.910747	0.917771	-0.266633	0.0471039	-0.301084	0.161822	0.284258	0	0	0.318847	-0.0248955	-0.275782	0	0.0302233	0	0	-0.201729	0.0228658	0.00354632	0.0803697	-0.363136	0.256697	0.890634	1.34756	0	0	-0.139419	-0.267347	0.332125	0.719934	1.0334	0	0
1.72	-3.09705	1.52679	-1.62947	0.759883	0.921059	0.916291	-0.277542	0.0442688	-0.300048	0.169846	0.289773	0	0	0.316927	-0.021835	-0.27059	0	0.029492	0	0	-0.204606	0.0203627	0.00605791	0.0795225	-0.359655	0.253366	0.882225	1.34829	0	0	-0.138193	-0.268745	0.332249	0.717188	1.03316	0	0
1.73	-3.09483	1.52461	-1.63714	0.759783	0.93173	0.914914	-0.287099	0.0398005	-0.300022	0.18042	0.295139	0	0	0.312847	-0.0184013	-0.264513	0	0.0259549	0	0	-0.206729	0.0170222	0.00978078	0.0774865	-0.355813	0.249311	0.873156	1.34906	0	0	-0.137323	-0.270308	0.332707	0.714103	1.03177	0	0
